<?xml version="1.0" standalone="no"?>
<!DOCTYPE svg PUBLIC "-//W3C//DTD SVG 20010904//EN"
 "http://www.w3.org/TR/2001/REC-SVG-20010904/DTD/svg10.dtd">
<svg version="1.0" xmlns="http://www.w3.org/2000/svg"
 width="500.000000pt" height="500.000000pt" viewBox="0 0 500.000000 500.000000"
 preserveAspectRatio="xMidYMid meet">

<g transform="translate(0.000000,500.000000) scale(0.100000,-0.100000)"
fill="" stroke="none">
<path d="M3849 4455 c-450 -65 -568 -114 -774 -320 -103 -103 -117 -121 -216
-295 l-107 -185 -569 -5 c-611 -5 -579 -3 -625 -55 -10 -11 -63 -87 -119 -169
-438 -641 -659 -1260 -618 -1731 42 -484 421 -908 972 -1090 183 -60 326 -85
527 -92 571 -20 1112 216 1408 612 87 116 173 299 201 427 57 255 18 588 -111
948 -118 331 -329 719 -566 1043 -58 80 -78 96 -132 105 l-40 7 62 105 c104
177 236 289 415 351 32 11 186 38 343 61 157 22 288 43 291 47 4 3 -1 62 -12
131 -10 69 -19 131 -19 138 0 6 -3 12 -7 11 -5 -1 -141 -20 -304 -44z m-582
-1482 c182 -321 283 -555 348 -808 42 -166 59 -303 52 -419 -8 -117 -27 -189
-81 -301 -140 -287 -431 -502 -816 -603 l-135 -36 -245 0 c-243 -1 -246 -1
-371 31 -402 102 -692 313 -834 608 -66 137 -79 196 -79 365 0 155 11 230 65
416 65 227 192 508 356 788 l38 66 820 0 821 0 61 -107z"/>
</g>
</svg>
